<?xml version="1.0" encoding="UTF-8"?>
<!DOCTYPE svg PUBLIC "-//W3C//DTD SVG 1.1//EN" "http://www.w3.org/Graphics/SVG/1.1/DTD/svg11.dtd">
<!-- Creator: CorelDRAW -->
<svg xmlns="http://www.w3.org/2000/svg" xml:space="preserve" width="101.6mm" height="101.6mm" version="1.1" style="shape-rendering:geometricPrecision; text-rendering:geometricPrecision; image-rendering:optimizeQuality; fill-rule:evenodd; clip-rule:evenodd"
viewBox="0 0 10160 10160"
 xmlns:xlink="http://www.w3.org/1999/xlink"
 xmlns:xodm="http://www.corel.com/coreldraw/odm/2003">
 <defs>
  <style type="text/css">
   <![CDATA[
    .fil15 {fill:#0B4B63}
    .fil16 {fill:#0C3C52}
    .fil11 {fill:#0C445B}
    .fil17 {fill:#123D52}
    .fil8 {fill:#12445B}
    .fil9 {fill:#124B5C}
    .fil4 {fill:#124E61}
    .fil12 {fill:#134354}
    .fil5 {fill:#144B63}
    .fil0 {fill:#155163}
    .fil14 {fill:#164A5D}
    .fil1 {fill:#174D5F}
    .fil3 {fill:#174D5F}
    .fil2 {fill:#174F62}
    .fil13 {fill:#1A455A}
    .fil10 {fill:#1A4B61}
    .fil7 {fill:#65B2C5}
    .fil6 {fill:#67ACC9}
   ]]>
  </style>
 </defs>
 <g id="Capa_x0020_1">
  <metadata id="CorelCorpID_0Corel-Layer"/>
  <path class="fil0" d="M4071.23 2989.82c0.63,343.45 104.73,598.3 280.61,864.48 29.56,44.75 66.02,82.4 101.25,129.92l222.64 241.75c83.61,72.25 107.56,84.19 187.11,162.68l567.4 482.57 289.31 291.92c143.33,160.31 232.15,255.85 342.96,464.78 252.9,476.82 220.85,952.92 -107.37,1383.72l-163.81 183.64c-69.29,77.02 -83.85,98.73 -182.62,166.87 -42.83,29.54 -109.56,75.07 -123.6,111.75 33.45,34.77 83.81,52.76 123.16,84.73 54.29,44.11 47.87,65.21 122.32,90.6 50.4,-26.84 97.74,-72.39 146.61,-106.04l326.72 -303.98c176.74,-218.95 309.37,-392.47 390.58,-727.2 157.24,-648.01 -170.53,-1139.64 -502.89,-1522.69l-124.31 -127.44c-67.36,-57.28 -318.01,-308.16 -393.71,-363.33l-348.4 -284.4c-32.06,-23.55 -36.69,-36.46 -64.28,-61.39 -51.36,-46.42 -107.8,-73.45 -205.95,-173.43 -153.22,-156.06 -202.09,-185.68 -342.12,-410.1 -346.28,-554.95 -264.48,-1294.01 139.38,-1781.66 -103.94,19.57 -299.52,231.45 -368.5,329.82 -191.05,272.52 -313.2,488.47 -312.49,872.43z"/>
  <path class="fil1" d="M5226.22 89.74c-190.49,20.73 -414.91,147.26 -522.25,278.79 -200.31,245.39 -226.58,579.47 -59.6,868.54 86.12,149.09 273.13,294.31 457.59,341.9 115.34,29.75 248.85,35.66 375.74,19.8 413.64,-51.7 734.3,-413.63 680.52,-865.97 -17.38,-146.31 -98.41,-279.21 -189.56,-384.3 -81.62,-94.11 -234.16,-193.09 -374.82,-232.38 -112.59,-31.44 -248.33,-39.36 -367.62,-26.38z"/>
  <path class="fil2" d="M3751.27 6421.26c-12.3,-32.95 -93.74,-79.78 -122.51,-103.12l-199 -160.95c-236.7,-206.62 -412.59,-494.43 -545.81,-770.73 -494.5,-1025.44 -269.01,-1963.81 436.84,-2804.91l222.46 -250.52c40.04,-43.08 79.66,-81.39 119.8,-122.62 21.27,-21.85 36.58,-36.81 60.8,-55.53 94.75,-73.19 149.67,-129.89 273.63,-213.26 27.31,-18.37 46.31,-34.76 75.18,-51.66 53.75,-31.48 97.97,-62.45 153.74,-91.58 55.2,-28.84 105.81,-57.23 155.11,-84.07 -420.98,78.04 -912.33,257.57 -1217.27,530.71 -26.37,23.62 -51.83,32.93 -78.66,58.21 -84.56,79.71 -130.82,113.41 -202.58,195.29 -75.06,85.66 -100.86,100.59 -186.84,218.68 -241.08,331.19 -400.22,685.34 -469.36,1102.3 -104.09,627.69 1.76,1199.5 304.3,1687.54 112.7,181.81 200.8,286.64 360,431.32 26.25,23.88 47.92,38.74 74.45,61.88 100.05,87.3 279.16,203.87 403.92,270.4 56.09,29.92 327.99,153.73 381.8,152.62z"/>
  <path class="fil3" d="M8076.76 4196.72c-1.66,556.69 -116.28,864.96 -348.19,1349.3 -98.49,205.73 -361.34,548.17 -535.31,678.72 -25.25,18.95 -26.22,22.28 -49.84,46.9 -43.4,45.27 -144.94,98.39 -168.14,152.45 80.46,-10.58 257.92,-102.16 331.1,-141.98 435.5,-237 700.23,-488.12 944.79,-916.76 186.34,-326.59 273.93,-727.57 273.37,-1103.64 -0.67,-447.3 -149.21,-988.56 -406.35,-1352.77 -201.98,-286.08 -167.39,-243.36 -409.46,-497.66 -52.63,-55.28 -109.93,-92.48 -160.05,-141.45l-170.06 -131.9c-160.43,-114.61 -413.48,-237.1 -605.15,-308.82 -86.26,-32.25 -396.32,-130.8 -478.69,-132.68 67.41,7.8 397.35,234.33 488.32,310.04 57.03,47.45 83.6,57.11 150.85,121.56l143.89 128.08c162.41,157.88 235.46,243.84 387.91,423.98 342.11,404.28 612.65,964.27 611.01,1516.63z"/>
  <path class="fil2" d="M4459.57 6211.3c-0.02,-283.71 139.29,-546.5 270.97,-731.47 35.85,-50.38 75.58,-98.74 115.23,-144.75 22.19,-25.73 38.43,-41.87 59.96,-65.48l321.02 -320.89c-22.52,-46.61 -277.81,-251.76 -286.07,-252.7 -40.41,-4.62 -198.22,157.72 -234.52,195.75l-138.29 142.73c-497.3,555.68 -671.51,1218.61 -289.02,1894.58 36.06,63.73 67.36,115.95 106.86,171.26 18.01,25.21 38.1,52.43 58.57,76.3l130.31 150.05c26.7,26.08 40.11,43.6 66.07,69.62 26.13,26.17 47.38,37.5 73.87,61.99 23.56,21.8 42.92,48.06 66.74,68.77 139.12,121.01 407.22,303.5 558.46,425.99 32.74,26.53 50.04,34.3 76.94,59.47 74.11,69.4 212.53,167.83 296.32,266.41 42.33,49.81 85.99,93.96 126.01,153.65 222.9,332.4 261.37,689.42 74.63,1038.81 -191.9,359.03 -405.49,465.99 -492.57,597.36 158.34,-98.97 155.39,-126.97 230.74,-178.96l233.13 -176.13 189.76 -216.27c338.2,-512.08 168.11,-1099.12 -182.6,-1447.19 -39.99,-39.7 -57.94,-70.47 -101.96,-111l-170.98 -140.47c-28.62,-24.37 -34.55,-23.98 -56.15,-41.58l-226.02 -182.59c-45.15,-39.1 -73.63,-56.83 -114.03,-90.37l-159.67 -150.7c-24.76,-25.8 -21.71,-19.79 -52.26,-44.49l-150.86 -158.83c-20.6,-20.57 -23.84,-27.19 -44.96,-51.59 -58.09,-67.09 -118.44,-143.38 -169.76,-234.03 -109.01,-192.52 -185.87,-380.71 -185.87,-633.25z"/>
  <path class="fil2" d="M5485.17 4182.47c46.39,30.46 89.96,67.16 139.24,102.52 145.32,104.3 89.71,192.61 288.3,4.83 45.45,-42.96 95.58,-73.46 144.68,-118.49 28.29,-25.96 36.52,-35.36 60.43,-65.31 41.22,-51.64 99.15,-97.51 184.8,-211.45 442.52,-588.67 424.86,-1329.43 -70.24,-1875.04 -49.58,-54.65 -212.91,-225.15 -290.06,-249.53 15.86,50.75 56.86,88.36 88.24,136.74 30.43,46.95 57.49,88.06 83.66,136.8 49.64,92.43 96.73,207.74 127.16,319.13 69.31,253.8 60.17,530.63 2.69,782.18 -49.65,217.41 -252.42,562.79 -403.45,707.14 -60.43,57.78 -19.36,34.62 -112.7,110.22 -60.77,49.23 -84.92,89.91 -182.73,157.4 -29.85,20.61 -48.13,29.2 -60.02,62.86z"/>
  <path class="fil4" d="M6038.11 4456.67c17.5,63.7 63.65,37.57 154.23,169.52 39.1,-6.44 162.18,-94.62 192.44,-117.63l84.11 -71.04c166.95,-139.02 224.7,-185.49 378.14,-387.34 332.05,-436.81 454.9,-1031.28 152.36,-1517.61 -88.76,-142.68 -245.8,-318.4 -383.79,-413.64 119.53,186.56 204.04,342.23 241.98,608.8 85.77,602.78 -207.27,1078.54 -590.24,1515.37 -81.63,93.14 -209.65,192.5 -229.23,213.57z"/>
  <path class="fil2" d="M4464.7 4622.01c23.86,-17.36 71.5,-59.57 92.14,-80.76 15.09,-15.51 73.67,-78.5 81.63,-93.86l-220.04 -207.87c-214.25,-209.02 -375.74,-507.13 -487.21,-787.98 -125.86,-317.11 -147.64,-720.14 -13.83,-1047.45 51.09,-124.98 91.3,-179.54 150.39,-275.72 -123.3,54.83 -369.47,400.09 -435.59,553.68 -118.42,275.13 -122.59,528 -46.15,825.11 32.26,125.35 81.11,240.84 137.04,347.86 63.72,121.9 126.71,198.91 203.02,296.72l247.57 255.96c42.73,35.44 250.68,199.48 291.03,214.31z"/>
  <path class="fil5" d="M5273.6 10045.94c-23.55,-41.71 -286.07,-275.61 -349.1,-356.79 -141.4,-182.14 -229.92,-340.19 -255.88,-618.12 -24.17,-258.75 113.32,-545.42 269.17,-718.06l95.19 -98c38.67,-35.17 64.63,-67.43 100.57,-103.04l113.42 -83.87c-14.85,-23.64 -88.22,-75.57 -113.21,-93.81 -111.29,-81.26 -71.74,-150.37 -250.15,4.42 -315.61,273.82 -482.97,681.07 -429.92,1092.21 41.1,318.65 249.18,548.43 496.53,743.01l323.38 232.05z"/>
  <path class="fil6" d="M3185.42 1804c-83.08,-55.16 -166.16,18.8 -234.89,57.09 -339.97,189.35 -648.9,533.19 -842.76,843.76 -38.04,60.93 -233.43,392.4 -199.44,470.63 20.06,46.16 104.09,21.45 129.04,-6.36 16.81,-18.76 44.31,-74.96 58.94,-103.83 110.11,-308.98 164.01,-472.76 551.06,-844.76 44.13,-33.75 544.01,-353.82 538.05,-416.53z"/>
  <path class="fil7" d="M7516.27 1829.35c12.99,49.6 208.77,140.22 250.44,177.37 369.17,329.08 470.04,469.18 711.4,859.17 32.88,53.11 143.76,270.45 186.99,302.8 30.27,22.64 108.75,52.13 117.92,-11.37 14.65,-101.49 -251.79,-529.26 -339.84,-648.55 -188.59,-255.73 -420.42,-466.47 -698.53,-641.28 -60.59,-38.09 -167,-117.4 -228.38,-38.14z"/>
  <path class="fil8" d="M4581.83 3020.43l1513.46 4.88c16.38,-18.33 5.3,-2.3 17.66,-28.46 19.14,-40.49 34.22,-99.33 -21.5,-112.56 -11.6,-2.75 -33.36,-2.34 -46.18,-2.31 -33.97,0.1 -67.98,0.44 -102,0.45 -392.32,0.01 -1035.72,-17.09 -1366,-1.26 -12.36,43.74 -2.4,98.98 4.56,139.26z"/>
  <path class="fil9" d="M4620.27 6245.41c408.85,15.17 926.67,6.33 1353.38,5.83 52.4,-0.05 96.97,14.94 112.62,-21.66 13.19,-30.87 2.58,-99.01 -18.42,-114.52 -31.47,-27.78 -367.22,-10.97 -438.54,-11.18l-830.41 -0.98c-144.7,-0.4 -224.83,-31.5 -178.63,142.51z"/>
  <path class="fil10" d="M5992.47 6599.48l-1274.21 -2.24c5.4,33.72 47.82,99.45 66.59,128.18 43.53,66.67 60.86,50.67 155.8,50.36 138.39,-0.47 276.83,-0.2 415.24,-0.61 138.39,-0.41 276.86,-1.08 415.23,-1.23 111.88,-0.13 118.63,12.95 155.03,-40.29 25.26,-36.92 61.07,-93.22 66.32,-134.17z"/>
  <path class="fil11" d="M4606.18 2520.43l1475.1 -4.51c4.38,-43.35 -39.5,-99.65 -55.62,-140.13l-1267.26 -1.23c-88.7,0.3 -127.79,-26.25 -152.22,145.87z"/>
  <path class="fil9" d="M5993.33 3352.41l-1277.7 -1.93c2.68,46.53 41.93,94.05 66.91,127.77 44.33,59.8 59.72,44.79 158.11,44.5l830.47 1.26c91.09,0.48 109.37,19.95 150.58,-43.37 22.88,-35.17 66.01,-87.34 71.63,-128.23z"/>
  <path class="fil12" d="M4785.33 5752.77c169.37,4.26 1060.93,15.84 1135.74,2.34 2.84,-40.55 -23.35,-60.49 -44.2,-85.96 -17.35,-21.2 -44.16,-60.21 -65.27,-75.8l-830.69 1.08c-85.34,0.03 -94.77,-7.71 -135.02,47.28 -33.63,45.96 -69.96,83.68 -60.56,111.06z"/>
  <path class="fil11" d="M4757.86 2136.87l1187.93 -0.01 -64.52 -111.14c-37.43,-53.47 -189.74,-34.45 -302.59,-34.45l-737.94 0.06c-50.1,7.81 -81.36,102.23 -82.88,145.54z"/>
  <path class="fil5" d="M5811.61 9126.63c36.43,-0.07 80.47,10.13 95.45,-14.12 13.45,-21.83 -5.36,-100.38 -14.61,-120.47 -44.37,9.71 -994.81,17.33 -1091.37,18.69l2.19 114.36 1008.34 1.54z"/>
  <path class="fil13" d="M5828.48 8720.66c-75.31,-15.79 -679.58,-0.86 -847.31,-2.52 -92.21,-0.9 -103.04,-11.98 -121.79,17.3 -7.77,12.11 -28.06,79.69 -26.97,94.86l1038.15 -0.89c-1.98,-45.83 -18.2,-77.44 -42.08,-108.75z"/>
  <path class="fil12" d="M5849.67 9291.09l-1007.84 -3.91 39.8 108.45c106.09,17.93 639.74,5.7 818.63,6.61 106.31,0.54 160.54,10.22 149.41,-111.15z"/>
  <path class="fil14" d="M5731.96 3732.53l-746.77 -5.48c-1.63,36.49 58.08,87.29 110.95,141.1 57.52,58.54 142.38,35.94 249.61,35.37 77.95,-0.42 207.31,17.9 261.03,-24.27 31.97,-25.09 126.08,-110.6 125.18,-146.72z"/>
  <path class="fil0" d="M5007.44 7005.04c4.32,59.76 49.31,75.66 78.84,112.47 58.7,73.18 52.88,50.37 239.24,50.76l182.28 0.3c144.09,0.49 85.81,-26.29 188.16,-107.46 27.37,-21.7 31.55,-16.72 31.73,-57.01l-720.25 0.94z"/>
  <path class="fil15" d="M5029.2 5366.48c46.78,19.12 554.92,6.88 638.05,6.57 -3.05,-34.71 -151.63,-169.47 -189.86,-201.61 -33.01,-27.76 -72.18,-17.16 -121.5,-17.39 -162.58,-0.73 -92.16,4.65 -260.92,140.42 -11.91,9.58 -58.72,59.62 -65.77,72.01z"/>
  <path class="fil16" d="M5726.07 8555.53c-11.23,-36.92 -12.55,-28.73 -29.95,-57.05 -5.02,-8.18 -6.77,-13.19 -13.98,-24.03 -12.82,-19.24 1.13,-5.45 -18.03,-21.74 -54.68,-15.14 -326.46,-3.03 -409.49,-2.85 -111.95,0.21 -280.45,-37.01 -289.93,110.37l761.38 -4.7z"/>
  <path class="fil17" d="M5619.9 9543.28c-134.58,0.72 -519.1,-4.96 -602.09,7.16 -14.95,34.53 51.52,101.34 79.31,108.89l400.56 2.23c83.66,0.14 119.4,12.21 163.53,-32.29 53.16,-53.57 60.83,-86.52 -41.31,-85.99z"/>
 </g>
</svg>
